<svg xmlns="http://www.w3.org/2000/svg" width="16" height="16" viewBox="0 0 16 16" fill="none"><path fill-rule="evenodd" clip-rule="evenodd" d="M8.344 1.44671C8.25112 1.35866 8.128 1.30957 8 1.30957C7.87201 1.30957 7.74889 1.35866 7.656 1.44671C6.24085 2.79064 4.35609 3.5276 2.40467 3.50005C2.29836 3.49867 2.19438 3.53121 2.10782 3.59295C2.02126 3.65469 1.95664 3.74241 1.92334 3.84338C1.64199 4.70082 1.49908 5.59763 1.5 6.50005C1.5 10.4614 4.20934 13.7887 7.87534 14.732C7.95711 14.7531 8.0429 14.7531 8.12467 14.732C11.7907 13.7887 14.5 10.4614 14.5 6.50005C14.5 5.57338 14.3513 4.68005 14.0767 3.84338C14.0435 3.74229 13.9789 3.65442 13.8923 3.59255C13.8058 3.53068 13.7017 3.49805 13.5953 3.49938L13.5 3.50005C11.5027 3.50005 9.68867 2.72005 8.344 1.44671ZM10.4067 6.79071C10.4467 6.73742 10.4756 6.67666 10.4918 6.61201C10.508 6.54737 10.5111 6.48014 10.5009 6.41428C10.4907 6.34843 10.4675 6.28526 10.4326 6.22851C10.3976 6.17176 10.3517 6.12257 10.2975 6.08382C10.2433 6.04507 10.1819 6.01754 10.1169 6.00287C10.0519 5.98819 9.98459 5.98666 9.91899 5.99836C9.85338 6.01005 9.79078 6.03475 9.73486 6.07099C9.67893 6.10723 9.63082 6.15428 9.59334 6.20938L7.436 9.22938L6.35334 8.14671C6.25855 8.05839 6.13319 8.01031 6.00366 8.0126C5.87412 8.01488 5.75053 8.06736 5.65892 8.15897C5.56731 8.25058 5.51484 8.37417 5.51255 8.5037C5.51027 8.63323 5.55835 8.7586 5.64667 8.85338L7.14667 10.3534C7.198 10.4047 7.25987 10.4442 7.328 10.4691C7.39612 10.4941 7.46887 10.504 7.54118 10.498C7.61349 10.492 7.68364 10.4704 7.74676 10.4346C7.80987 10.3988 7.86444 10.3497 7.90667 10.2907L10.4067 6.79071Z" fill="#8B520B"></path></svg>